<svg xmlns="http://www.w3.org/2000/svg" viewBox="0 0 83.76 144"><defs><style>.cls-1{fill:#ff7043;}</style></defs><title>Light Bulb</title><g id="Layer_2" data-name="Layer 2"><g id="Layer_1-2" data-name="Layer 1"><path class="cls-1" d="M83.76,46.15a50.48,50.48,0,0,1-.88,9.42,9.94,9.94,0,0,1-.23,1.56c-1.75,7.68-5.9,19.6-15.56,36.4a7.86,7.86,0,0,1-6.76,4.09H41.55l0-5.33h-1l0,5.34H22.8A7.87,7.87,0,0,1,16,93.4C6.69,76.61,2.71,64.71,1,57A10,10,0,0,1,.82,55.3,51.19,51.19,0,0,1,0,46.15C0,20.66,18.75,0,41.88,0S83.76,20.66,83.76,46.15Z"/><rect class="cls-1" x="16.2" y="104.39" width="51.6" height="8.5" rx="3.8" ry="3.8"/><rect class="cls-1" x="16.2" y="117.29" width="51.6" height="8.5" rx="3.8" ry="3.8"/><path class="cls-1" d="M67.8,134v.9a3.81,3.81,0,0,1-3.8,3.8H53.77a3.68,3.68,0,0,1,.05.66A4.67,4.67,0,0,1,49.18,144H33.92a4.66,4.66,0,0,1-4.65-4.65,3.68,3.68,0,0,1,.05-.66H20a3.81,3.81,0,0,1-3.8-3.8V134a3.81,3.81,0,0,1,3.8-3.8H64A3.81,3.81,0,0,1,67.8,134Z"/><path class="cls-1" d="M41.59,92.29l0,5.33h-.95l0-5.34Z"/><path class="cls-1" d="M41.59,92.29l0,5.33h-.95l0-5.34Z"/></g></g></svg>